<svg xmlns="http://www.w3.org/2000/svg" viewBox="0 0 169 49" aria-label="Artistack logo">
  <defs>
    <style>.s{stroke:#fff;stroke-width:2.5;stroke-linecap:round;stroke-linejoin:round;fill:none}.n{fill:#fff}</style>
  </defs>
  <!-- Emblem (scaled 92%, shifted right + down) -->
  <path d="M 25.87,5.4 Q 17.7,25.6 7.7,45" class="s"/>
  <path d="M 25.87,5.4 Q 36.1,20.1 41.7,36.8" class="s"/>
  <path d="m 14.5,29.6 h 16.5" class="s"/>
  <circle cx="25.87" cy="5.4" r="2.8" class="n"/>
  <circle cx="14.5" cy="29.6" r="2.8" class="n"/>
  <circle cx="31" cy="29.6" r="2.3" class="n"/>
  <circle cx="7.7" cy="45" r="2.4" class="n"/>
  <circle cx="41.7" cy="36.8" r="2.4" class="n"/>
  <!-- rtistack -->
  <path fill="#fff" d="M 47.089,39.5 V 19.302 h 2.385 v 3.143 h 0.18 q 0.597-1.553 2.096-2.475 1.518-0.94 3.397-0.94 0.289,0 0.65,0.018 0.361,0 0.596,0.018 v 2.457 q-0.126-0.018-0.542-0.072-0.415-0.054-0.903-0.054-2.349,0-3.884,1.463-1.518,1.446-1.518,3.686 V 39.5 Z M 68.793,19.302 v 2.132 h-4.155 v 13.297 q 0,3.035 2.71,2.764 0.253,0 0.614-0.054 0.38-0.072 0.705-0.145 l 0.506,2.114 q-0.777,0.253-1.843,0.289-2.403,0.163-3.776-1.138-1.373-1.319-1.373-3.667 V 21.434 h-2.999 v-2.132 h 2.999 v-4.806 h 2.457 v 4.806 z M 73.003,39.5 V 19.302 h 2.457 V 39.5 Z m 1.247-23.938 q-0.741,0-1.265-0.506-0.524-0.506-0.524-1.21 0-0.705 0.524-1.21 0.524-0.506 1.265-0.506 0.74,0 1.264,0.506 0.524,0.505 0.524,1.21 0,0.704-0.524,1.21-0.524,0.506-1.264,0.506 z m 13.821,24.372 q-2.981,0-4.932-1.337-1.933-1.355-2.475-3.902 l 2.348-0.56 q 0.434,1.824 1.717,2.728 1.3,0.885 3.306,0.885 2.294,0 3.667-1.03 1.391-1.03 1.391-2.565 0-2.457-3.288-3.252 l-3.288-0.795 q-5.185-1.246-5.185-5.366 0-1.698 0.903-2.98 0.922-1.283 2.511-2.006 1.608-0.722 3.65-0.722 2.854,0 4.516,1.3 1.68,1.283 2.385,3.469 l-2.24,0.578 q-0.47-1.391-1.572-2.294-1.084-0.922-3.071-0.922-2.005,0-3.306,0.976-1.301,0.957-1.301,2.457 0,2.493 3.613,3.36 l 3.09,0.74 q 5.112,1.23 5.112,5.312 0,1.734-0.957,3.071-0.958,1.337-2.674,2.096-1.698,0.759-3.92,0.759 z M 107.564,19.302 v 2.132 h-4.155 v 13.297 q 0,3.035 2.71,2.764 0.253,0 0.614-0.054 0.38-0.072 0.705-0.145 l 0.506,2.114 q-0.777,0.253-1.843,0.289-2.403,0.163-3.776-1.138-1.373-1.319-1.373-3.667 V 21.434 h-2.999 v-2.132 h 2.999 v-4.806 h 2.457 v 4.806 z m 9.756,20.65 q-1.843,0-3.36-0.705-1.5-0.722-2.403-2.077-0.885-1.355-0.885-3.324 0-1.988 0.993-3.162 0.994-1.192 2.746-1.788 1.753-0.615 4.029-0.886 2.511-0.307 3.884-0.56 1.391-0.253 1.391-1.409 v-0.47 q 0-2.023-1.228-3.18-1.229-1.174-3.505-1.174-2.168,0-3.523,0.958-1.337,0.939-1.861,2.204 l-2.348-0.795 q 0.668-1.644 1.878-2.638 1.211-0.993 2.71-1.445 1.518-0.47 3.09-0.47 1.192,0 2.457,0.326 1.264,0.307 2.348,1.066 1.084,0.74 1.753,2.06 0.668,1.3 0.668,3.306 V 39.5 h-2.403 v-3.198 h-0.18 q-0.669,1.391-2.24,2.53-1.554,1.12-4.011,1.12 z m 0.361-2.186 q 1.843,0 3.198-0.813 1.355-0.831 2.096-2.186 0.74-1.373 0.74-3.017 v-2.873 q-0.343,0.326-1.3,0.578-0.958,0.235-2.06,0.398-1.102,0.144-1.897,0.253-2.547,0.307-3.938,1.192-1.391,0.867-1.391,2.656 0,1.806 1.3,2.818 1.301,0.994 3.252,0.994 z m 22.529,2.114 q-2.638,0-4.643-1.319-2.006-1.319-3.144-3.65-1.138-2.348-1.138-5.419 0-3.107 1.138-5.456 1.138-2.349 3.144-3.668 2.005-1.336 4.643-1.336 2.041,0 3.631,0.777 1.59,0.776 2.638,1.951 1.048,1.174 1.445,2.42 l-2.33,0.723 q-0.235-0.759-0.922-1.608-0.668-0.849-1.806-1.445-1.12-0.596-2.656-0.596-2.06,0-3.505,1.12-1.427,1.102-2.186,2.981-0.759,1.861-0.759,4.137 0,2.24 0.759,4.101 0.759,1.861 2.186,2.981 1.445,1.102 3.505,1.102 1.572,0 2.71-0.614 1.138-0.614 1.843-1.482 0.704-0.885 0.921-1.662 l 2.313,0.723 q-0.38,1.246-1.446,2.457-1.048,1.21-2.674,2.005-1.608,0.777-3.667,0.777 z M 153.019,39.5 V 12.581 h 2.457 v 16.188 h 0.289 l 9.34-9.467 h 3.09 l-8.582,8.69 L 168.719,39.5 h-3.144 l-7.804-9.918-2.295,2.168 V 39.5 Z"/>
</svg>
